# xmcd CD database file
#
# Track frame offsets:
#	150
#	6155
#	22633
#	52830
#	66205
#	114278
#	170610
#	184473
#	210315
#	251590
#	277993
#
# Disc length: 3946 seconds
#
# Revision: 0
# Processed by: cddbd v1.5.1PL0 Copyright (c) Steve Scherf et al.
# Submitted via: CDex 1.51
#
DISCID=880f680b
DTITLE=Bill Evans Solo - Waltz for Debby
DYEAR=2002
DGENRE=Jazz
TTITLE0=WALTZ FOR DEBBY
TTITLE1=LUCKY TO BE ME
TTITLE2=PEACE PIECE
TTITLE3=IN YOUR OWN SWEET WAY
TTITLE4=DANNY BOY
TTITLE5=MEDLEY: MY FAVORITE THINGS - EASY TO LOVE - BAUBLES,BANGLES AND BEADS
TTITLE6=WHEN FALL IN LOVE
TTITLE7=EVERYTHING HAPPENS TO ME
TTITLE8=ALL THE THINGS YOU ARE
TTITLE9=I LOVES YOU, PORGY
TTITLE10=LOVE IS HERE TO SAY
EXTD=YEAR: 2002
EXTT0=
EXTT1=
EXTT2=
EXTT3=
EXTT4=
EXTT5=
EXTT6=
EXTT7=
EXTT8=
EXTT9=
EXTT10=
PLAYORDER=
